<svg width="500" height="400" viewBox="0 0 500 400" xmlns="http://www.w3.org/2000/svg"><title>sprite</title><desc>Created with Sketch.</desc><g fill="none" fill-rule="evenodd"><g><path d="M11.91 0C5.315 0 0 5.274 0 11.78c0 3.22 1.306 6.125 3.403 8.24.182.19.182.538-.03.696-.517.38-1.58.884-2.462 1.073-1.426.284.275 1.263 3.13 1.642 2.917.38 6.046.505 7.11.41 1.488-.063 3.068-.316 4.617-.884 4.71-1.58 8.08-5.97 8.08-11.18C23.848 5.275 18.502 0 11.91 0z" fill="#fff"/><path d="M71.067 9.022h-5.11c-.624 0-1.113-.49-1.113-1.11V2.8c0-3.733-5.822-3.733-5.822 0v5.11c0 .623-.49 1.112-1.11 1.112H52.8c-3.733 0-3.733 5.822 0 5.822h5.11c.623 0 1.112.49 1.112 1.112v5.11c0 3.734 5.822 3.734 5.822 0v-5.11c0-.623.49-1.112 1.112-1.112h5.11c3.734 0 3.734-5.822 0-5.822z" fill="#fff"/><path d="M114.248 19.46c-1.02.35-2.11.54-3.248.54-5.523 0-10-4.477-10-10s4.477-10 10-10 10 4.477 10 10c0 2.197-.708 4.228-1.91 5.878l3.04 3.037c1.158 1.16 1.162 3.05 0 4.213-1.162 1.16-3.05 1.164-4.215 0l-3.667-3.667zM111 17c3.866 0 7-3.134 7-7s-3.134-7-7-7-7 3.134-7 7 3.134 7 7 7z" fill="#fff"/><path d="M414.033 216.974c-.695.233-1.44.36-2.215.36-3.765 0-6.818-2.985-6.818-6.667s3.053-6.667 6.818-6.667c3.766 0 6.818 2.985 6.818 6.667 0 1.464-.483 2.818-1.3 3.918l2.07 2.025c.79.773.793 2.033 0 2.81-.792.773-2.08.774-2.873 0l-2.5-2.446zm-2.215-1.64c2.636 0 4.773-2.09 4.773-4.667 0-2.578-2.136-4.667-4.772-4.667s-4.773 2.09-4.773 4.667 2.137 4.666 4.773 4.666z" fill="#CBD1D7"/><path d="M203.247 10.5c-1.795 0-3.247-1.453-3.247-3.25S201.452 4 203.247 4c1.796 0 3.247 1.453 3.247 3.25-.038 1.797-1.49 3.25-3.247 3.25zm27.506 0c-1.796 0-3.247-1.453-3.247-3.25S228.956 4 230.753 4C232.548 4 234 5.453 234 7.25c-.038 1.797-1.49 3.25-3.247 3.25zm-14.86 11.426c-6.477-.47-10.4-5.79-10.44-5.83-.723-.98-.57-2.387.382-3.248.42-.313.876-.51 1.372-.51.685 0 18.935-.038 19.545-.038.61 0 1.18.235 1.6.704.42.43.648 1.018.648 1.644 0 .626-.267 1.213-.686 1.604-3.62 3.835-7.467 5.713-11.506 5.713" id="settings" fill="#FCFCFC"/><path d="M153.247 10.5c-1.795 0-3.247-1.453-3.247-3.25S151.452 4 153.247 4c1.796 0 3.247 1.453 3.247 3.25-.038 1.797-1.49 3.25-3.247 3.25zm27.506 0c-1.796 0-3.247-1.453-3.247-3.25S178.956 4 180.753 4C182.548 4 184 5.453 184 7.25c-.038 1.797-1.49 3.25-3.247 3.25zm-14.86 11.426c-6.477-.47-10.4-5.79-10.44-5.83-.723-.98-.57-2.387.382-3.248.42-.313.876-.51 1.372-.51.685 0 1.333.314 1.752.862l.037.04c.19.234 3.086 3.717 7.2 3.99 2.973.196 5.945-1.252 8.955-4.265.42-.43.99-.665 1.6-.665.61 0 1.18.235 1.6.704.42.43.648 1.018.648 1.644 0 .626-.267 1.213-.686 1.604-3.62 3.835-7.467 5.713-11.506 5.713-.267 0-.572 0-.914-.04z" fill="#FCFCFC"/><path d="M6.31 57.5H3.69c-.656 0-1.19-.53-1.19-1.184v-2.632c0-.653.534-1.184 1.19-1.184h2.62c.656 0 1.19.53 1.19 1.184v2.608c0 .652-.534 1.208-1.19 1.208zm7 0h-2.62c-.656 0-1.19-.53-1.19-1.184v-2.632c0-.653.534-1.184 1.19-1.184h2.62c.655 0 1.19.53 1.19 1.184v2.608c.023.652-.51 1.208-1.19 1.208zm7 0h-2.62c-.656 0-1.19-.53-1.19-1.184v-2.632c0-.653.534-1.184 1.19-1.184h2.62c.656 0 1.19.53 1.19 1.184v2.608c0 .652-.534 1.208-1.19 1.208zm-14 7H3.69c-.656 0-1.19-.53-1.19-1.184v-2.632c0-.653.534-1.184 1.19-1.184h2.62c.656 0 1.19.53 1.19 1.184v2.632c0 .653-.534 1.184-1.19 1.184zm7 0h-2.62c-.656 0-1.19-.53-1.19-1.184v-2.632c0-.653.534-1.184 1.19-1.184h2.62c.655 0 1.19.53 1.19 1.184v2.632c.023.653-.51 1.184-1.19 1.184zm7 0h-2.62c-.656 0-1.19-.53-1.19-1.184v-2.632c0-.653.534-1.184 1.19-1.184h2.62c.656 0 1.19.53 1.19 1.184v2.632c0 .653-.534 1.184-1.19 1.184zm-14 6.97H3.69c-.656 0-1.19-.535-1.19-1.19v-2.62c0-.657.534-1.19 1.19-1.19h2.62c.656 0 1.19.533 1.19 1.19v2.62c0 .655-.534 1.19-1.19 1.19zm7 0h-2.62c-.656 0-1.19-.535-1.19-1.19v-2.62c0-.657.534-1.19 1.19-1.19h2.62c.655 0 1.19.533 1.19 1.19v2.62c.023.655-.51 1.19-1.19 1.19zm7 0h-2.62c-.656 0-1.19-.535-1.19-1.19v-2.62c0-.657.534-1.19 1.19-1.19h2.62c.656 0 1.19.533 1.19 1.19v2.62c0 .655-.534 1.19-1.19 1.19z" fill="#A1AAB3"/><path d="M6.31 107.5H3.69c-.656 0-1.19-.53-1.19-1.184v-2.632c0-.653.534-1.184 1.19-1.184h2.62c.656 0 1.19.53 1.19 1.184v2.608c0 .652-.534 1.208-1.19 1.208zm7 0h-2.62c-.656 0-1.19-.53-1.19-1.184v-2.632c0-.653.534-1.184 1.19-1.184h2.62c.655 0 1.19.53 1.19 1.184v2.608c.023.652-.51 1.208-1.19 1.208zm7 0h-2.62c-.656 0-1.19-.53-1.19-1.184v-2.632c0-.653.534-1.184 1.19-1.184h2.62c.656 0 1.19.53 1.19 1.184v2.608c0 .652-.534 1.208-1.19 1.208zm-14 7H3.69c-.656 0-1.19-.53-1.19-1.184v-2.632c0-.653.534-1.184 1.19-1.184h2.62c.656 0 1.19.53 1.19 1.184v2.632c0 .653-.534 1.184-1.19 1.184zm7 0h-2.62c-.656 0-1.19-.53-1.19-1.184v-2.632c0-.653.534-1.184 1.19-1.184h2.62c.655 0 1.19.53 1.19 1.184v2.632c.023.653-.51 1.184-1.19 1.184zm7 0h-2.62c-.656 0-1.19-.53-1.19-1.184v-2.632c0-.653.534-1.184 1.19-1.184h2.62c.656 0 1.19.53 1.19 1.184v2.632c0 .653-.534 1.184-1.19 1.184zm-14 6.97H3.69c-.656 0-1.19-.535-1.19-1.19v-2.62c0-.657.534-1.19 1.19-1.19h2.62c.656 0 1.19.533 1.19 1.19v2.62c0 .655-.534 1.19-1.19 1.19zm7 0h-2.62c-.656 0-1.19-.535-1.19-1.19v-2.62c0-.657.534-1.19 1.19-1.19h2.62c.655 0 1.19.533 1.19 1.19v2.62c.023.655-.51 1.19-1.19 1.19zm7 0h-2.62c-.656 0-1.19-.535-1.19-1.19v-2.62c0-.657.534-1.19 1.19-1.19h2.62c.656 0 1.19.533 1.19 1.19v2.62c0 .655-.534 1.19-1.19 1.19z" fill="#fff"/><path d="M52.094 52.5c-1.157 0-2.094.917-2.094 2.047v1.406c0 1.13.938 2.047 2.094 2.047h1.312c1.157 0 2.094-.917 2.094-2.047v-1.406c0-1.13-.938-2.047-2.094-2.047h-1.312zm1.312 7h-1.312c-1.157 0-2.094.917-2.094 2.047v1.406c0 1.13.938 2.047 2.094 2.047h1.312c1.157 0 2.094-.917 2.094-2.047v-1.406c0-1.13-.938-2.047-2.094-2.047zm0 7h-1.312c-1.157 0-2.094.917-2.094 2.047v1.406c0 1.13.938 2.047 2.094 2.047h1.312c1.157 0 2.094-.917 2.094-2.047v-1.406c0-1.13-.938-2.047-2.094-2.047zm5.345 2c-.414 0-.75.333-.75.75 0 .414.344.75.75.75h16.5c.414 0 .75-.333.75-.75 0-.414-.344-.75-.75-.75h-16.5zm0-7c-.414 0-.75.333-.75.75 0 .414.344.75.75.75h16.5c.414 0 .75-.333.75-.75 0-.414-.344-.75-.75-.75h-16.5zm0-7c-.414 0-.75.333-.75.75 0 .414.344.75.75.75h16.5c.414 0 .75-.333.75-.75 0-.414-.344-.75-.75-.75h-16.5z" fill="#A1AAB3"/><path d="M120.836 54.94c.486-.488.493-1.286.005-1.774-.49-.492-1.28-.486-1.772.005l-7.066 7.067-7.066-7.066c-.49-.49-1.28-.496-1.773-.004-.488.488-.48 1.286.005 1.773l7.066 7.065-7.066 7.066c-.486.487-.493 1.285-.005 1.774.492.49 1.282.486 1.773-.005l7.066-7.067 7.066 7.066c.49.49 1.28.495 1.773.004.49-.49.482-1.287-.004-1.773l-7.066-7.065 7.066-7.066z" fill="#A1AAB3"/><path d="M116.602 104.94c.486-.488.493-1.286.005-1.774-.492-.492-1.282-.486-1.773.005l-7.066 7.067-1.06 1.06c-.39.39-.392 1.024 0 1.417l1.06 1.06 7.066 7.065c.49.49 1.28.495 1.773.004.488-.49.48-1.287-.005-1.773l-7.066-7.065 7.066-7.066z" fill="#fff"/><path d="M404.067 152.94c-.486-.488-.493-1.286-.005-1.774.492-.492 1.282-.486 1.773.005l5.066 5.067 1.06 1.06c.39.39.393 1.024 0 1.417l-1.06 1.06-5.065 5.065c-.49.49-1.28.495-1.773.004-.488-.49-.48-1.287.005-1.773l5.066-5.065-5.066-5.066z" fill="#CBD1D7"/><path d="M157.368 104.94c-.486-.488-.493-1.286-.005-1.774.492-.492 1.282-.486 1.773.005l7.066 7.067 1.06 1.06c.39.39.392 1.024 0 1.417l-1.06 1.06-7.066 7.065c-.49.49-1.28.495-1.773.004-.488-.49-.48-1.287.005-1.773l7.066-7.065-7.066-7.066z" fill="#fff"/><path d="M70.836 104.94c.486-.488.493-1.286.005-1.774-.49-.492-1.28-.486-1.772.005l-7.066 7.067-7.066-7.066c-.49-.49-1.28-.496-1.773-.004-.488.488-.48 1.286.005 1.773l7.066 7.065-7.066 7.066c-.486.487-.493 1.285-.005 1.774.492.49 1.282.486 1.773-.005l7.066-7.067 7.066 7.066c.49.49 1.28.495 1.773.004.49-.49.482-1.287-.004-1.773l-7.066-7.065 7.066-7.066z" fill="#fff"/><path d="M304.51 153.094c-.395-.393-1.026-.39-1.416 0-.394.393-.39 1.024 0 1.415l3.535 3.533-3.536 3.535c-.393.394-.39 1.025 0 1.415.393.393 1.024.39 1.415 0l3.533-3.535 3.535 3.535c.394.393 1.025.39 1.415 0 .393-.393.39-1.024 0-1.415l-3.535-3.535 3.535-3.534c.393-.395.39-1.026 0-1.416-.393-.394-1.024-.39-1.415 0l-3.535 3.535-3.534-3.536z" fill="#ACB6BF"/><path d="M161.7 53.895l.805-.774c.954-.916 2.496-.916 3.45 0l3.085 2.968c.477.458.73 1.05.73 1.672 0 .647-.28 1.24-.73 1.67l-6.367 6.123c-.953.917-2.496.917-3.45 0-.813-.782-.813-2.05 0-2.832l5.077-4.88c.505-.485.505-1.24 0-1.725-.505-.486-1.29-.486-1.795 0l-5.077 4.88c-1.795 1.726-1.795 4.53 0 6.257.954.944 2.244 1.402 3.506 1.402 1.29 0 2.553-.485 3.534-1.43l6.367-6.12c.954-.89 1.46-2.104 1.46-3.37 0-1.27-.534-2.482-1.46-3.372l-3.085-2.966c-1.963-1.86-5.105-1.86-7.04 0l-2.24 2.15-5.25 4.942c-1.738 1.645-2.72 4.045-2.72 6.58 0 2.453.982 4.8 2.637 6.39 1.85 1.78 4.32 2.67 6.815 2.67 2.216 0 4.488-.7 6.452-2.13.056-.027.112-.054.14-.108l6.59-6.337c.506-.486.506-1.24 0-1.726-.504-.485-1.29-.485-1.794 0l-6.535 6.283c-3.17 2.238-7.293 2.103-9.873-.377-1.206-1.16-1.88-2.86-1.88-4.666 0-1.887.702-3.64 1.964-4.854l1.306-1.228c.115-.058.223-.134.32-.228l3.602-3.462 1.307-1.23c.057-.054.107-.11.15-.17z" fill="#A1AAB3"/><path d="M212 74c6.627 0 12-5.373 12-12s-5.373-12-12-12-12 5.373-12 12 5.373 12 12 12zm-7.482-11.964c-1.048 0-1.916-.867-1.916-1.916 0-1.048.868-1.915 1.916-1.915s1.916.867 1.916 1.915c0 1.05-.832 1.916-1.916 1.916zm15.072 0c-1.048 0-1.915-.867-1.915-1.916 0-1.048.867-1.915 1.915-1.915 1.05 0 1.916.867 1.916 1.915 0 1.05-.83 1.916-1.916 1.916zm-7.662 7.88c-.217 0-.398 0-.615-.036-4.3-.29-7.012-3.723-7.12-3.868-.542-.723-.434-1.735.29-2.277.722-.542 1.734-.434 2.276.29.035.07 1.987 2.457 4.806 2.602 1.952.108 3.94-.796 5.964-2.784.65-.614 1.663-.614 2.313.037.615.65.615 1.662-.036 2.313-2.53 2.494-5.205 3.723-7.88 3.723z" fill="#ACB6BF"/><path d="M259.2 72c-.628 0-1.257-.257-1.746-.697l-6.57-6.124c-1.085-1.027-1.19-2.75-.21-3.888.978-1.136 2.62-1.246 3.704-.22l4.578 4.29 10.45-12.43c.945-1.137 2.622-1.247 3.706-.257 1.083.99 1.188 2.75.244 3.887l-12.198 14.52c-.454.55-1.118.88-1.817.918h-.14z" fill="#5AC700"/><path d="M311 58c-1.65 0-3 1.35-3 3s1.35 3 3 3 3-1.35 3-3-1.35-3-3-3z" fill="#E6E9EB"/><path d="M460 70c16.57 0 30-13.43 30-30s-13.43-30-30-30-30 13.43-30 30 13.43 30 30 30zm14.447-32.49c2.063 1.375 2.07 3.6 0 4.98l-19.803 13.202c-2.063 1.375-3.735.483-3.735-2.006V26.314c0-2.483 1.664-3.386 3.734-2.006l19.803 13.202z" fill="#fff"/><path d="M460 120c11.046 0 20-8.954 20-20s-8.954-20-20-20-20 8.954-20 20 8.954 20 20 20zm9.63-21.66c1.376.917 1.38 2.4 0 3.32l-13.2 8.8c-1.376.918-2.49.323-2.49-1.336V90.876c0-1.655 1.11-2.257 2.49-1.337l13.2 8.8z" fill="#fff"/><path d="M3.753 154.215l.593-.583.032-.034 1.614-1.645c.428-.445.428-1.165-.033-1.61-.265-.206-.528-.343-.824-.343-.264 0-.593.137-.823.343l-3.95 4.01c-.133.136-.198.24-.23.376-.067.17-.133.376-.133.616 0 .205.033.377.1.514.032.17.13.342.262.445l3.95 4.01c.198.205.527.342.824.342.263 0 .56-.102.823-.342.46-.446.46-1.13.032-1.61L4.05 156.75l-.43-.48c.79-.136 2.93-.444 4.248.618.79.617 1.152 1.645 1.152 3.084 0 .583.428 1.028.988 1.028s.988-.48.988-1.028c.065-2.022-.593-3.632-1.877-4.66-1.713-1.37-4.083-1.268-5.367-1.097z" fill="#ACB6BF"/><path d="M19.333 300h19.334C49.347 300 58 308.528 58 319.048v1.904C58 331.468 49.344 340 38.667 340h-19.7c.118-.005.24-.014.366-.026v.024c-3.57-.11-9.38-.485-12.81-.945-4.61-.632-7.357-2.264-5.052-2.737 1.424-.316 3.14-1.158 3.974-1.79.344-.263.344-.842.05-1.158C2.108 329.842 0 325 0 319.632 0 308.79 8.583 300 19.226 300h.107zm6.868 30c-.628 0-1.257-.257-1.746-.697l-6.57-6.124c-1.085-1.027-1.19-2.75-.21-3.888.978-1.136 2.62-1.246 3.704-.22l4.578 4.29 10.45-12.43c.945-1.137 2.622-1.247 3.706-.257 1.083.99 1.188 2.75.244 3.887l-12.198 14.52c-.454.55-1.118.88-1.817.918h-.14z" fill="#5AC700"/><path d="M88 300c-11.045 0-20 8.952-20 20 0 11.046 8.95 20 20 20h18c11.045 0 20-8.952 20-20 0-11.046-8.95-20-20-20H88zm6.2 30c-.628 0-1.257-.257-1.746-.697l-6.57-6.124c-1.085-1.027-1.19-2.75-.21-3.888.978-1.136 2.62-1.246 3.704-.22l4.578 4.29 10.45-12.43c.945-1.137 2.622-1.247 3.706-.257 1.083.99 1.188 2.75.244 3.887l-12.198 14.52c-.454.55-1.118.88-1.817.918h-.14z" fill="#5AC700"/><path d="M155.333 300h19.334c10.68 0 19.333 8.528 19.333 19.048v1.904c0 10.516-8.656 19.048-19.333 19.048h-19.7c.118-.005.24-.014.366-.026v.024c-3.57-.11-9.38-.485-12.81-.945-4.61-.632-7.357-2.264-5.052-2.737 1.424-.316 3.14-1.158 3.974-1.79.344-.263.344-.842.05-1.158C138.108 329.842 136 325 136 319.632 136 308.79 144.583 300 155.226 300h.107zm9.575 26.602c-1.127-.034-2.09.836-2.128 1.946l-.023.87c-.038 1.108.88 2.024 2.014 2.06l.822.02c1.127.036 2.09-.834 2.128-1.944l.023-.872c.038-1.107-.88-2.023-2.014-2.057l-.822-.023zM157 315.855c0 1.312 1.093 2.35 2.435 2.35s2.435-1.038 2.435-2.35c0-1.73 1.504-3.158 3.368-3.158 1.865 0 3.37 1.428 3.37 3.158 0 1.03-.73 2.144-1.6 2.474-.788.306-1.266.526-1.862.913-1.452.944-2.343 2.25-2.343 3.984 0 1.31 1.094 2.35 2.435 2.35 1.342 0 2.435-1.04 2.435-2.35 0 .014-.023.083-.01.07.145-.15.506-.354 1.136-.588 2.734-1.05 4.7-3.906 4.7-6.833-.026-4.362-3.723-7.877-8.262-7.877-4.524 0-8.238 3.524-8.238 7.855z" fill="#5C6BC0"/><path d="M224 300c-11.045 0-20 8.952-20 20 0 11.046 8.95 20 20 20h18c11.045 0 20-8.952 20-20 0-11.046-8.95-20-20-20h-18zm8.908 26.602c-1.127-.034-2.09.836-2.128 1.946l-.023.87c-.038 1.108.88 2.024 2.014 2.06l.822.02c1.127.036 2.09-.834 2.128-1.944l.023-.872c.038-1.107-.88-2.023-2.014-2.057l-.822-.023zM225 315.855c0 1.312 1.093 2.35 2.435 2.35s2.435-1.038 2.435-2.35c0-1.73 1.504-3.158 3.368-3.158 1.865 0 3.37 1.428 3.37 3.158 0 1.03-.73 2.144-1.6 2.474-.788.306-1.266.526-1.862.913-1.452.944-2.343 2.25-2.343 3.984 0 1.31 1.094 2.35 2.435 2.35 1.342 0 2.435-1.04 2.435-2.35 0 .014-.023.083-.01.07.145-.15.506-.354 1.136-.588 2.734-1.05 4.7-3.906 4.7-6.833-.026-4.362-3.723-7.877-8.262-7.877-4.524 0-8.238 3.524-8.238 7.855z" fill="#5C6BC0"/><path d="M291.333 300h19.334c10.68 0 19.333 8.528 19.333 19.048v1.904c0 10.516-8.656 19.048-19.333 19.048h-19.7c.118-.005.24-.014.366-.026v.024c-3.57-.11-9.38-.485-12.81-.945-4.61-.632-7.357-2.264-5.052-2.737 1.424-.316 3.14-1.158 3.974-1.79.344-.263.344-.842.05-1.158C274.108 329.842 272 325 272 319.632 272 308.79 280.583 300 291.226 300h.107zM291 320c0-5.523 4.477-10 10-10s10 4.477 10 10-4.477 10-10 10-10-4.477-10-10zm24 0c0-7.732-6.268-14-14-14s-14 6.268-14 14 6.268 14 14 14 14-6.268 14-14zm-13-1v-4.252c0-.972-.672-1.748-1.5-1.748-.834 0-1.5.783-1.5 1.748v5.752c0 .834.674 1.5 1.505 1.5h4.99c.837 0 1.505-.672 1.505-1.5 0-.834-.674-1.5-1.505-1.5H302z" fill="#FBC02D"/><path d="M360 300c-11.045 0-20 8.952-20 20 0 11.046 8.95 20 20 20h18c11.045 0 20-8.952 20-20 0-11.046-8.95-20-20-20h-18zm-1 20c0-5.523 4.477-10 10-10s10 4.477 10 10-4.477 10-10 10-10-4.477-10-10zm24 0c0-7.732-6.268-14-14-14s-14 6.268-14 14 6.268 14 14 14 14-6.268 14-14zm-13-1v-4.252c0-.972-.672-1.748-1.5-1.748-.834 0-1.5.783-1.5 1.748v5.752c0 .834.674 1.5 1.505 1.5h4.99c.837 0 1.505-.672 1.505-1.5 0-.834-.674-1.5-1.505-1.5H370z" fill="#FBC02D"/><path d="M19.333 350h19.334C49.347 350 58 358.528 58 369.048v1.904C58 381.468 49.344 390 38.667 390h-19.7c.118-.005.24-.014.366-.026v.024c-3.57-.11-9.38-.485-12.81-.945-4.61-.632-7.357-2.264-5.052-2.737 1.424-.316 3.14-1.158 3.974-1.79.344-.263.344-.842.05-1.158C2.108 379.842 0 375 0 369.632 0 358.79 8.583 350 19.226 350h.107zm6.106 20l-5.703-5.703c-.98-.98-.98-2.572.005-3.555.99-.99 2.575-.986 3.555-.005L29 366.44l5.703-5.703c.98-.98 2.572-.98 3.555.005.99.99.986 2.575.005 3.555L32.56 370l5.703 5.703c.98.98.98 2.572-.005 3.555-.99.99-2.575.986-3.555.005L29 373.56l-5.703 5.703c-.98.98-2.572.98-3.555-.005-.99-.99-.986-2.575-.005-3.555L25.44 370z" fill="#FB4A46"/><path d="M88 350c-11.045 0-20 8.952-20 20 0 11.046 8.95 20 20 20h18c11.045 0 20-8.952 20-20 0-11.046-8.95-20-20-20H88zm5.44 20l-5.703-5.703c-.98-.98-.98-2.572.005-3.555.99-.99 2.575-.986 3.555-.005L97 366.44l5.703-5.703c.98-.98 2.572-.98 3.555.005.99.99.986 2.575.005 3.555L100.56 370l5.703 5.703c.98.98.98 2.572-.005 3.555-.99.99-2.575.986-3.555.005L97 373.56l-5.703 5.703c-.98.98-2.572.98-3.555-.005-.99-.99-.986-2.575-.005-3.555L93.44 370z" fill="#FB4A46"/><path d="M155.333 350h19.334c10.68 0 19.333 8.528 19.333 19.048v1.904c0 10.516-8.656 19.048-19.333 19.048h-19.7c.118-.005.24-.014.366-.026v.024c-3.57-.11-9.38-.485-12.81-.945-4.61-.632-7.357-2.264-5.052-2.737 1.424-.316 3.14-1.158 3.974-1.79.344-.263.344-.842.05-1.158C138.108 379.842 136 375 136 369.632 136 358.79 144.583 350 155.226 350h.107zm-5.76 19.214c-1.416-2.83-1.573-3.79-1.573-4.806 0-1.014.262-1.44.524-1.602.262-.16 3.43-2.725 3.43-2.725s.473-.372.945.482c.366.64 2.044 3.257 2.044 3.257s.42.32.524.853c.053.374-.367.855-.63 1.175-.576.588-.733.64-.733 1.442 0 .8 1.887 2.937 2.412 3.524.524.534.472.534 1.048 1.068.682.64 2.412 2.243 3.146 1.976.683-.214.945-.214 1.574-.908.524-.587 1.52-.214 1.94.107.42.32 2.57 1.548 3.198 1.975.63.428.577 1.068.577 1.068s-2.436 3.1-2.593 3.366c-.157.267-.682.534-1.678.534-.997 0-2.046 0-4.72-1.655-2.097-1.39-3.617-2.724-4.718-3.79-1.1-1.07-3.566-3.045-4.72-5.34z" fill="#26C6DA"/><path d="M224 350c-11.045 0-20 8.952-20 20 0 11.046 8.95 20 20 20h18c11.045 0 20-8.952 20-20 0-11.046-8.95-20-20-20h-18zm-6.427 19.214c-1.416-2.83-1.573-3.79-1.573-4.806 0-1.014.262-1.44.524-1.602.262-.16 3.43-2.725 3.43-2.725s.473-.372.945.482c.366.64 2.044 3.257 2.044 3.257s.42.32.524.853c.053.374-.367.855-.63 1.175-.576.588-.733.64-.733 1.442 0 .8 1.887 2.937 2.412 3.524.524.534.472.534 1.048 1.068.682.64 2.412 2.243 3.146 1.976.683-.214.945-.214 1.574-.908.524-.587 1.52-.214 1.94.107.42.32 2.57 1.548 3.198 1.975.63.428.577 1.068.577 1.068s-2.436 3.1-2.593 3.366c-.157.267-.682.534-1.678.534-.997 0-2.046 0-4.72-1.655-2.097-1.39-3.617-2.724-4.718-3.79-1.1-1.07-3.566-3.045-4.72-5.34z" fill="#26C6DA"/><rect fill="#282E33" x="50" y="150" width="28" height="28" rx="14"/><rect id="Rectangle-21" fill="#fff" x="450" y="150" width="32" height="32" rx="16"/><path d="M461.188 160.438h-4.1c-.6 0-1.088.49-1.088 1.095v10.372c0 .605.487 1.095 1.09 1.095h17.82c.603 0 1.09-.49 1.09-1.095v-10.372c0-.605-.487-1.095-1.09-1.095h-4.07c-.346-.316-.764-.814-1.146-1.588-.45-.912-1.72-.826-1.72-.826h-3.99s-1.046-.244-1.676.816c-.405.68-.773 1.23-1.12 1.598zm4.435 1.612c2.446 0 4.783 2.088 4.783 4.663s-2.337 4.662-4.783 4.662-4.43-2.087-4.43-4.662c0-2.576 1.984-4.663 4.43-4.663zm6.628.364c0 .358-.287.647-.642.647-.356 0-.644-.288-.644-.646 0-.357.288-.647.644-.647.355 0 .643.29.643.647zm-6.45.712c1.957 0 3.543 1.606 3.543 3.587 0 1.98-1.586 3.586-3.543 3.586s-3.543-1.607-3.543-3.587c0-1.982 1.586-3.587 3.543-3.587zm-7.5-3.5v-.546c0-.15.123-.273.273-.273h1.23c.15 0 .27.122.27.273v.546h-1.772z" fill="#A1AAB3"/><path d="M65.788 164.023l3.885-3.885c.485-.485.492-1.284.004-1.772-.492-.49-1.282-.486-1.772.004l-3.885 3.885-3.885-3.885c-.49-.49-1.28-.495-1.772-.004-.488.488-.48 1.287.004 1.772l3.885 3.885-3.885 3.885c-.485.485-.492 1.284-.004 1.772.492.492 1.28.486 1.772-.004l3.885-3.885 3.885 3.886c.49.49 1.28.496 1.772.004.488-.488.48-1.287-.004-1.772l-3.885-3.885z" fill="#fff"/><path d="M104 150h12c2.21 0 4 1.792 4 4v12c0 2.21-1.792 4-4 4h-12c-2.21 0-4-1.792-4-4v-12c0-2.21 1.792-4 4-4zm-2 3.994c0-1.1.895-1.994 1.994-1.994h12.012c1.1 0 1.994.895 1.994 1.994v12.012c0 1.1-.895 1.994-1.994 1.994h-12.012c-1.1 0-1.994-.895-1.994-1.994v-12.012z" fill="#CBD1D7"/><path d="M154 150c-2.21 0-4 1.792-4 4v12c0 2.21 1.792 4 4 4h12c2.21 0 4-1.792 4-4v-12c0-2.21-1.792-4-4-4h-12zm4.6 15c-.314 0-.63-.128-.873-.348l-3.286-3.062c-.54-.514-.593-1.375-.104-1.944.49-.568 1.31-.623 1.853-.11l2.288 2.145 5.225-6.214c.472-.568 1.31-.623 1.853-.128.542.495.594 1.375.122 1.943l-6.1 7.262c-.226.275-.558.44-.908.458h-.07z" fill="#CBD1D7"/><path d="M204 150c-2.21 0-4 1.792-4 4v12c0 2.21 1.792 4 4 4h12c2.21 0 4-1.792 4-4v-12c0-2.21-1.792-4-4-4h-12zm4.6 15c-.314 0-.63-.128-.873-.348l-3.286-3.062c-.54-.514-.593-1.375-.104-1.944.49-.568 1.31-.623 1.853-.11l2.288 2.145 5.225-6.214c.472-.568 1.31-.623 1.853-.128.542.495.594 1.375.122 1.943l-6.1 7.262c-.226.275-.558.44-.908.458h-.07z" fill="#2895F1"/><path d="M251 155.01c0-1.11.902-2.01 2.01-2.01h7.98c1.11 0 2.01.902 2.01 2.01v7.98c0 1.11-.902 2.01-2.01 2.01h-7.98c-1.11 0-2.01-.902-2.01-2.01v-7.98zm22 4.99h-4.993c-.557 0-1.007.448-1.007 1 0 .556.45 1 1.007 1H273v4.993c0 .557.448 1.007 1 1.007.556 0 1-.45 1-1.007V162h4.993c.557 0 1.007-.448 1.007-1 0-.556-.45-1-1.007-1H275v-4.993c0-.557-.448-1.007-1-1.007-.556 0-1 .45-1 1.007V160zm-23 7.5c0-.828.675-1.5 1.498-1.5h11.004c.827 0 1.498.666 1.498 1.5v1.5h-14v-1.5zm6.924-4.542c-.108 0-.2 0-.307-.018-2.15-.145-3.506-1.862-3.56-1.934-.27-.36-.217-.867.144-1.14.363-.27.87-.215 1.14.146.018.036.994 1.23 2.403 1.3.976.055 1.97-.396 2.982-1.39.326-.308.832-.308 1.157.018.307.325.307.83-.018 1.156-1.265 1.247-2.603 1.862-3.94 1.862z" fill="#5AC700"/><path d="M1 256.01c0-1.11.902-2.01 2.01-2.01h7.98c1.11 0 2.01.902 2.01 2.01v7.98c0 1.11-.902 2.01-2.01 2.01H3.01C1.9 266 1 265.098 1 263.99v-7.98zM23 261h-4.993c-.557 0-1.007.448-1.007 1 0 .556.45 1 1.007 1H23v4.993c0 .557.448 1.007 1 1.007.556 0 1-.45 1-1.007V263h4.993c.557 0 1.007-.448 1.007-1 0-.556-.45-1-1.007-1H25v-4.993c0-.557-.448-1.007-1-1.007-.556 0-1 .45-1 1.007V261zm-23 7.5c0-.828.675-1.5 1.498-1.5h11.004c.827 0 1.498.666 1.498 1.5v1.5H0v-1.5zm6.924-4.542c-.108 0-.2 0-.307-.018-2.15-.145-3.506-1.862-3.56-1.934-.27-.36-.217-.867.144-1.14.363-.27.87-.215 1.14.146.018.036.994 1.23 2.403 1.3.976.055 1.97-.396 2.982-1.39.326-.308.832-.308 1.157.018.307.325.307.83-.018 1.156-1.265 1.247-2.603 1.862-3.94 1.862z" fill="#2895F1"/><path d="M118.007 261c-.557 0-1.007.448-1.007 1 0 .556.45 1 1.007 1H123v4.993c0 .557.448 1.007 1 1.007.556 0 1-.45 1-1.007V263h4.993c.557 0 1.007-.448 1.007-1 0-.556-.45-1-1.007-1H125v-4.993c0-.557-.448-1.007-1-1.007-.556 0-1 .45-1 1.007V261h-4.993zM100 257.117c.426-1.233 1.56-2.117 2.89-2.117h9.22c1.33 0 2.464.883 2.89 2.117L107.5 262l-7.5-4.883zm0 1.883v7.177c0 1.56 1.344 2.823 3 2.823h9c1.657 0 3-1.265 3-2.823V259l-7.5 4.706L100 259z" fill="#2895F1"/><path d="M205 205.343c0-1.294 1.052-2.343 2.343-2.343h9.314c1.294 0 2.343 1.052 2.343 2.343v9.314c0 1.294-1.052 2.343-2.343 2.343h-9.314c-1.294 0-2.343-1.052-2.343-2.343v-9.314zm.498 12.657h13.004c.827 0 1.498.666 1.498 1.5v1.5h-16v-1.5c0-.828.675-1.5 1.498-1.5zm6.426-4.042c-.108 0-.2 0-.307-.018-2.15-.145-3.506-1.862-3.56-1.934-.27-.36-.217-.867.144-1.14.363-.27.87-.215 1.14.146.018.036.994 1.23 2.403 1.3.976.055 1.97-.396 2.982-1.39.326-.308.832-.308 1.157.018.307.325.307.83-.018 1.156-1.265 1.247-2.603 1.862-3.94 1.862z" fill="#2895F1"/><path d="M64.408 260.9l1.294-1.03c.163-.16.163-.322.08-.483l-1.63-2.814c-.083-.08-.246-.16-.49-.08l-1.438.566c-.61-.522-1.316-.933-2.09-1.2l-.227-1.458c.082-.24-.163-.402-.326-.402h-3.264c-.163 0-.408.16-.408.322l-.242 1.61c-.717.276-1.373.675-1.94 1.172l-1.49-.612c-.245-.08-.41 0-.572.16l-1.632 2.815c-.082.08 0 .322.163.483l1.383 1.038c-.05.33-.078.668-.078 1.012 0 .374.032.74.092 1.097l-1.397 1.114c-.163.162-.163.323-.08.483l1.63 2.815c.082.08.246.16.49.08l1.573-.62c.57.48 1.223.866 1.935 1.13l.247 1.58c0 .16.163.322.408.322h3.264c.163 0 .408-.16.408-.322l.25-1.605c.696-.265 1.334-.647 1.89-1.12l1.614.635c.164.08.41 0 .49-.16l1.632-2.815c.082-.16.082-.402-.08-.482L64.4 263.13c.065-.366.098-.743.098-1.128 0-.374-.032-.742-.092-1.1zM73 261h-4.993c-.557 0-1.007.448-1.007 1 0 .556.45 1 1.007 1H73v4.993c0 .557.448 1.007 1 1.007.556 0 1-.45 1-1.007V263h4.993c.557 0 1.007-.448 1.007-1 0-.556-.45-1-1.007-1H75v-4.993c0-.557-.448-1.007-1-1.007-.556 0-1 .45-1 1.007V261zm-15.062 4.264c-.108 0-.2 0-.307-.018-2.15-.144-3.505-1.86-3.56-1.933-.27-.362-.216-.868.145-1.14.362-.27.868-.216 1.14.146.017.035.993 1.227 2.402 1.3.976.054 1.97-.398 2.982-1.392.325-.307.83-.307 1.156.018.307.326.307.832-.018 1.157-1.265 1.247-2.602 1.86-3.94 1.86z" fill="#2895F1"/><path d="M269.208 210.764l1.456-1.16c.184-.182.184-.363.092-.544l-1.836-3.166c-.092-.09-.276-.18-.55-.09l-1.62.637c-.684-.585-1.48-1.047-2.35-1.35l-.255-1.638c.092-.27-.183-.452-.367-.452h-3.672c-.184 0-.46.18-.46.362l-.272 1.81c-.806.312-1.544.76-2.184 1.32l-1.675-.688c-.275-.09-.46 0-.643.18l-1.836 3.167c-.092.09 0 .363.184.543l1.556 1.168c-.058.372-.09.753-.09 1.14 0 .42.037.833.105 1.234l-1.57 1.253c-.184.18-.184.362-.092.543l1.836 3.166c.092.09.276.18.55.09l1.77-.697c.64.54 1.376.973 2.177 1.27l.278 1.778c0 .18.184.362.46.362h3.672c.184 0 .46-.18.46-.362l.28-1.805c.783-.3 1.5-.73 2.127-1.262l1.816.716c.183.09.46 0 .55-.18l1.837-3.166c.092-.18.092-.453-.092-.543l-1.645-1.128c.072-.413.11-.837.11-1.27 0-.42-.036-.834-.105-1.236zm-7.27 4.5c-.108 0-.2 0-.307-.018-2.15-.144-3.505-1.86-3.56-1.933-.27-.362-.216-.868.145-1.14.362-.27.868-.216 1.14.146.017.035.993 1.227 2.402 1.3.976.054 1.97-.398 2.982-1.392.325-.307.83-.307 1.156.018.307.326.307.832-.018 1.157-1.265 1.247-2.602 1.86-3.94 1.86z" fill="#2895F1"/><path d="M304 216.622V220h3.378l9.778-9.867-3.378-3.377-9.778 9.866zm15.733-9.066c.356-.356.356-.89 0-1.245l-2.044-2.043c-.357-.356-.89-.356-1.246 0l-1.6 1.6 3.378 3.377 1.51-1.688zM318.997 218c.554 0 1.003.444 1.003 1 0 .552-.455 1-.995 1H310l2-2h6.997z" fill="#2895F1"/><path d="M354.51 153.094c-.395-.393-1.026-.39-1.416 0-.394.393-.39 1.024 0 1.415l3.535 3.533-3.536 3.535c-.393.394-.39 1.025 0 1.415.393.393 1.024.39 1.415 0l3.533-3.535 3.535 3.535c.394.393 1.025.39 1.415 0 .393-.393.39-1.024 0-1.415l-3.535-3.535 3.535-3.534c.393-.395.39-1.026 0-1.416-.393-.394-1.024-.39-1.415 0l-3.535 3.535-3.534-3.536z" fill="#EBA49B"/><path d="M12 206.325l-5.635 3.544-3.865-3.153L8.09 203l3.91 3.325L15.91 203l5.59 3.717-3.865 3.152L12 206.324zm-9.5 6.696l5.59 3.718 3.91-3.325-5.635-3.544-3.865 3.15zm9.5.393l3.91 3.325 5.59-3.717-3.865-3.15L12 213.412zm.01.716l-3.92 3.314-1.68-1.116v1.25l5.6 3.422 5.602-3.42v-1.252l-1.678 1.116-3.923-3.315z" fill="#2895F1"/><path d="M62.356 215.307c-1.36 0-2.463-1.134-2.463-2.535 0-1.4 1.103-2.535 2.463-2.535s2.462 1.135 2.462 2.535c0 1.4-1.102 2.535-2.462 2.535m-7.252 0c-1.36 0-2.464-1.134-2.464-2.535 0-1.4 1.104-2.535 2.464-2.535 1.36 0 2.46 1.135 2.46 2.535 0 1.4-1.1 2.535-2.46 2.535m7.252-6.762c-1.57 0-2.937.91-3.626 2.246-.688-1.335-2.054-2.245-3.626-2.245-.923 0-1.776.314-2.464.845v-3.56c-.008-.462-.372-.83-.82-.83-.45 0-.81.368-.82.83v7.012c.037 2.303 1.86 4.158 4.104 4.158 1.572 0 2.938-.91 3.626-2.246.69 1.335 2.055 2.246 3.626 2.246 2.266 0 4.104-1.893 4.104-4.228s-1.838-4.227-4.104-4.227zm10.473 7.04l-2.232-2.82 2.234-2.823c.282-.373.2-.893-.188-1.17-.39-.278-.938-.206-1.24.155l-1.922 2.425-1.92-2.425c-.3-.36-.85-.433-1.24-.154-.39.277-.47.796-.186 1.17l2.23 2.823-2.23 2.82c-.284.372-.203.89.187 1.168.39.278.94.207 1.24-.155l1.92-2.423L71.4 216.6c.303.36.85.432 1.24.154.39-.277.472-.796.19-1.17z" fill="#2895F1"/><g><path d="M105.333 221l3.333-6h13.332l-3.333 6h-13.332z" id="Shape" fill="#2895F1"/><path d="M115.332 215h6.666l-6.666-12h-6.666l6.666 12z" id="Shape" fill="#FFCE2F"/><path d="M102 215l3.333 6L112 209l-3.334-6L102 215z" fill="#07A35E"/></g><path d="M161 211h-6c-.555 0-1 .448-1 1 0 .556.448 1 1 1h6v6c0 .555.448 1 1 1 .556 0 1-.448 1-1v-6h6c.555 0 1-.448 1-1 0-.556-.448-1-1-1h-6v-6c0-.555-.448-1-1-1-.556 0-1 .448-1 1v6z" fill="#2895F1"/><g><path d="M464 200v14h6v-11.116c0-1.593-1.347-2.884-3-2.884h-3z" fill="#DD4735"/><path d="M456 220v-14h-6v11.116c0 1.593 1.347 2.884 3 2.884h3z" fill="#07A35E"/><path d="M464 206v-6h-11.116c-1.593 0-2.884 1.347-2.884 3v3h14z" fill="#2895F1"/><path d="M470 214h-14v6h11.116c1.593 0 2.884-1.347 2.884-3v-3z" fill="#FFCE2F"/><path fill="#19925C" d="M450 206l6 6v-6z"/><path d="M462 220l-6-6v6h6z" fill="#EBBD31"/></g><g fill="#D74A38"><path d="M362 206v-2h-4.997c-1.66 0-3.003 1.347-3.003 3.01v9.98c0 1.673 1.345 3.01 3.003 3.01H362v-2h-4.892c-.612 0-1.108-.485-1.108-1.107v-9.786c0-.61.494-1.107 1.108-1.107H362zM358.993 213c-.548 0-.993-.444-.993-1 0-.552.445-1 .993-1h7.596l-2.1-2.1c-.388-.386-.387-1.014.006-1.407.39-.39 1.026-.388 1.408-.007l3.68 3.68c.054.036.106.078.154.127.2.2.3.462.296.72.003.26-.095.522-.296.722-.048.05-.1.09-.155.128l-3.68 3.68c-.38.38-1.017.383-1.407-.008-.393-.393-.394-1.02-.007-1.407l2.127-2.128h-7.624z"/></g><path d="M355.51 54.094c-.395-.393-1.026-.39-1.416 0-.394.393-.39 1.024 0 1.415l5.535 5.533-5.536 5.535c-.393.394-.39 1.025 0 1.415.393.393 1.024.39 1.415 0l5.533-5.535 5.535 5.535c.394.393 1.025.39 1.415 0 .393-.393.39-1.024 0-1.415l-5.535-5.535 5.535-5.534c.393-.395.39-1.026 0-1.416-.393-.394-1.024-.39-1.415 0l-5.535 5.535-5.534-5.536z" fill="#D74A38"/><path d="M260.124 4.14c1.036-1.518 2.714-1.52 3.753 0l9.643 14.113c1.036 1.517.34 2.747-1.558 2.747h-19.924c-1.896 0-2.596-1.227-1.557-2.747l9.644-14.114zM262 7c-.828 0-1.5.71-1.5 1.6v4.8c0 .884.666 1.6 1.5 1.6.828 0 1.5-.71 1.5-1.6V8.6c0-.884-.666-1.6-1.5-1.6zm0 9c-.828 0-1.5.666-1.5 1.5 0 .828.666 1.5 1.5 1.5.828 0 1.5-.666 1.5-1.5 0-.828-.666-1.5-1.5-1.5z" fill="#FB4A46"/><path d="M200 106.005c0-3.316 2.682-6.005 5.993-6.005h44.014c3.31 0 5.993 2.676 5.993 6.005v23.99c0 3.316-2.682 6.005-5.993 6.005h-44.014c-3.31 0-5.993-2.676-5.993-6.005v-23.99zm18.544 16.475c-2.616 0-4.248-1.992-4.248-4.848 0-2.904 1.848-4.824 4.488-4.824 1.704 0 3.024.528 4.224 1.488v-3.072c-1.056-.768-2.544-1.224-4.224-1.224-4.416 0-7.584 3.072-7.584 7.632 0 4.464 2.808 7.584 7.272 7.584 1.944 0 3.888-.624 5.328-2.088v-6.168h-5.28v2.52h2.496v2.232c-.648.528-1.512.768-2.472.768zm11.776-12.24h-3.072v14.736h3.072V110.24zm6.856 14.736v-5.64h6.264v-2.664h-6.264v-3.744h6.768v-2.688h-9.816v14.736h3.048z" fill="#fff"/><g transform="translate(300)"><path d="M2.005 4C.898 4 0 4.898 0 5.99v16.02C0 23.11.897 24 2.005 24h19.99C23.102 24 24 23.102 24 22.01V5.99C24 4.89 23.103 4 21.995 4H2.005zM2 9v12c0 .553.455 1 .992 1h18.016c.548 0 .992-.447.992-1V9H2z" fill="#282E33"/><circle fill="#FB4A46" cx="22" cy="6" r="6"/></g></g></g></svg>